<svg xmlns="http://www.w3.org/2000/svg" width="3000" height="3000" shape-rendering="geometricPrecision" image-rendering="optimizeQuality" fill-rule="evenodd" xmlns:v="https://vecta.io/nano">
  <g fill="#ffffff"> <!-- Ubah warna fill menjadi putih -->
    <path d="M2507 1561c-80-72-170-135-269-189 56 136 79 283 62 435-36 336-258 623-577 798 24 2 48 3 72 3 114 0 223-19 322-52 219-196 364-450 395-734 10-89 8-176-5-261zM841 899c107-65 213-110 320-202-23 48-41 82-60 107 255-76 589-124 965-54-47-75-114-141-221-189-79 2-213 10-337 40 87-85 475-10 267-501 42 337-1097 493-1057 858 34-18 76-38 123-59zm350 124c283 51 555 219 647 504 140 434-225 799-636 882 61 50 131 91 209 124 427-148 762-548 643-1007-53-207-194-379-369-498 254 33 502 116 721 246-46-98-107-189-180-273-523-205-1473-289-1743 245 38-21 76-40 115-59 187-86 388-141 593-164zM963 2424c0-129 74-248 198-326 17-10 34-19 52-28H897c-94 101-146 225-146 354 0 39 5 78 14 116 183 170 420 295 685 360 134-33 260-81 376-142-341-11-646-133-863-324v-10z" fill-rule="nonzero"/>
    <path d="M548.107 1712.828c-8.323-.969-14.791-2.935-22.512-6.844-20.075-10.162-35.131-27.689-40.81-47.508-2.773-9.673-2.62-.364-2.514-153.005l.544-144.942c.693-9.605 2.154-15.864 6.023-25.787 6.971-17.87 18.378-30.408 35.212-38.706 9.468-4.667 18.516-7.015 29.577-7.677 3.824-.227 66.215-.264 147.664-.084 155.888.346 143.008.084 152.759 3.111 4.486 1.392 12.78 5.316 17.85 8.444 17.799 10.983 30.689 28.853 34.533 47.876.755 3.737.793 11.14.793 150.428l-.788 151.506c-2.52 16.009-9.98 29.954-23.012 43.019-10.205 10.231-19.626 15.866-32.132 19.22l-4.546 1.219-147.664.06c-81.215.034-149.154-.115-150.975-.327zm61.622-43.634c6.367-2.164 14.239-7.478 20.67-13.955 5.052-5.087 9.015-10.605 11.772-16.387 3.209-6.73 3.994-9.976 4.26-17.617.386-11.129-1.227-20.405-4.878-28.078-4.389-9.221-10.153-16.012-36.496-43.004-28.401-29.1-36.575-37.798-42.721-45.459-1.845-2.298-2.344-3.234-2.145-4.001.947-3.627 10.654-13.589 35.406-36.344 26.053-23.95 34.256-32.516 43.224-45.136 5.59-7.865 9.592-17.051 11.018-25.288.877-5.058.88-14.562.01-19.667-1.872-10.958-7.675-21.897-15.323-28.872-10.866-9.908-21.528-14.477-36.767-15.754-6.535-.547-33.315-.213-39.94.499-14.809 1.592-28.571 11.98-32.068 24.207-.697 2.436-.764 9.928-.908 101.112l.24 144.72c.429 51.518.216 48.219 3.559 53.438 2.286 3.558 7.104 8.658 10.471 11.078s6.592 3.926 10.822 5.057c3.09.826 4.657.866 29.748.768l26.487-.103zm226.259.67c-1.673-3.125-13.835-15.846-43.257-45.242-33.55-33.521-120.78-123.27-120.929-124.423-.395-3.031 15.089-19.367 34.786-36.706 11.222-9.878 27.407-25.529 37.256-36.026 19.58-20.869 24.56-28.191 26.327-38.706.863-5.121.776-16.895-.144-20.609-1.023-4.117-2.734-8.323-4.905-12.07-2.38-4.102-11.172-13.034-15.93-16.179-6.706-4.433-14.902-7.942-22.514-9.641-3.698-.825-29.882-1.351-38.436-.772l-5.327.361.371 1.431c.216.787 2.432 4.516 4.952 8.288s5.372 8.531 6.337 10.576c5.113 10.839 7.493 24.347 7.027 39.876-.379 12.599-2.193 20.007-7.596 31.019-7.513 15.312-17.616 27.167-39.945 46.879-13.025 11.497-23.489 21.962-28.355 28.356l-3.413 4.484 25.706 27.208 37.82 40.601c10.586 12.75 15.864 24.131 17.909 38.618.968 6.847.865 19.913-.216 26.175-1.639 9.61-5.19 18.004-11.781 27.849-2.083 3.108-4.278 6.502-4.883 7.541l-1.1 1.89h75.324l74.908-.778zm29.797-154.39l-1.797-148.721c-3.648-24.125-13.445-34.244-35.467-36.632-5.192-.563-32.319-.676-32.319-.136 0 .813 3.021 5.053 7.055 9.902 4.953 5.952 7.243 9.235 9.281 13.304 4.54 9.062 5.896 18.959 4.907 35.791-.903 15.36-2.705 22.073-8.409 31.336-8.08 13.121-18.688 24.405-47.279 50.293-16.879 15.283-28.119 27.13-27.708 29.204.048.359 29.728 30.727 65.905 67.482l65.776 66.828.144-2.083c.096-1.146.024-53.602-.096-116.569z"/>
    <path d="M1168.896 1480.7c2.376-2.373 5.182-5.429 8.42-9.169 3.23-3.74 6.29-8.156 9.181-13.256s5.36-10.782 7.397-17.072c2.046-6.282 3.069-12.994 3.069-20.128 0-13.923-2.384-26.917-7.144-38.982-4.768-12.057-12.081-22.594-21.947-31.603-9.866-8.992-22.192-16.05-36.996-21.15-14.795-5.091-32.067-7.641-51.791-7.641h-.541-56.711-14.761-58.114v64.961 224.891 66.878h142.885c20.747 0 38.856-2.803 54.344-8.409 15.471-5.606 28.322-13.332 38.526-23.185s17.771-21.319 22.708-34.397c4.929-13.078 7.397-27.094 7.397-42.047 0-20.044-4.591-37.876-13.772-53.513-9.19-15.62-19.91-27.685-32.151-36.179m-63.178-93.634c4.81 1.832 8.826 4.213 11.963 7.21 8.125 7.785 12.191 17.089 12.191 27.913 0 9.819-1.699 17.933-5.081 24.358-3.39 6.434-6.78 11.339-10.162 14.716H1015.3v-78.411h61.741c11.574 0 21.102 1.427 28.677 4.213M1095.412 1523c17.982 0 31.306 4.652 39.98 13.94 8.158 9.144 12.267 19.934 12.267 32.422 0 12.867-4.658 23.852-13.975 32.987-9.325 9.135-24.644 13.712-45.991 13.712h-7.972-64.421V1523zm361.655 1.782c10.712-7.303 19.648-15.797 26.791-25.481s12.411-20.382 15.818-32.101c3.399-11.728 5.106-23.7 5.106-35.934 0-15.966-2.646-30.657-7.913-44.082-5.284-13.416-13.189-24.966-23.731-34.651-10.551-9.684-23.731-17.241-39.549-22.678-15.818-5.429-34.104-8.156-54.851-8.156h-1.868-137.44-1.285v356.731h67.625v-132.498h37.706l93.259 132.498h79.267l-96.437-137.083c14.279-3.732 26.783-9.254 37.503-16.565m-77.821-141.929a96.44 96.44 0 0 1 12.09.76c12.056 1.815 21.905 6.113 29.497 12.943 10.331 9.313 15.497 20.728 15.497 34.254a60.74 60.74 0 0 1-3.306 19.799 45.22 45.22 0 0 1-10.416 16.996c-4.751 4.914-10.847 8.882-18.295 11.93-7.457 3.048-16.435 4.568-26.935 4.568h-71.607v-101.25zm160.637-61.154v.101l-2.037-.101h-.575v.025 130.759 93.693 132.253h68.953v-356.731z"/>
    <path d="M1556 2041v-216h-60l33-64h98v280zm-323-106h76l-38-131-38 131zm-108 106l97-283h97l97 283h-76l-15-51h-109l-15 51h-76zm-159-106v-57h151v7 9c0 47-12 83-38 108-26 26-62 39-108 39-23 0-44-3-61-10-18-7-34-17-48-30s-24-28-31-46c-8-18-11-36-11-55 0-21 3-39 10-56 8-17 18-32 33-46 14-13 30-23 48-29 19-7 38-11 60-11 27 0 52 6 73 16 21 11 39 26 54 47l-67 30c-44-57-137-29-135 52 3 99 135 93 146 32h-76zm-264-177h78v283h-78zm-220 283v-283h77v217h95v66z"/>
  </g>
  <path d="M1685 1028h0c254 34 502 116 721 246-46-98-107-189-180-273-187-37-368-32-541 27zm-494-5h0c-269-31-501 38-708 223 38-21 76-40 115-59 187-86 388-141 593-164zm875-273c-47-75-114-141-221-189-276 135-559 128-744 243 255-76 589-124 965-54zm-291-650c91 349-178 334-267 501 87-85 475-10 267-501zm525 1707c-36 336-258 623-577 798 24 2 48 3 72 3 114 0 223-19 322-52 236-422 335-799 121-1184 56 136 79 283 62 435zm-1098 602c61 50 131 91 209 124 198-153 427-474 445-698-62 290-345 511-654 574zm248 491c134-33 260-81 376-142-341-11-646-133-863-324 6 54 138 376 487 466zm-429-667c34-52 81-98 140-135 17-10 34-19 52-28h-70c-48 45-90 99-122 163z" fill-rule="nonzero" fill="#ffffff"/> <!-- Ubah warna fill menjadi putih -->
</svg>